<?xml version="1.0" encoding="utf-8"?>
<!-- Generator: Adobe Illustrator 23.0.3, SVG Export Plug-In . SVG Version: 6.00 Build 0)  -->
<svg version="1.1" id="Layer_1" xmlns:serif="http://www.serif.com/"
	 xmlns="http://www.w3.org/2000/svg" xmlns:xlink="http://www.w3.org/1999/xlink" x="0px" y="0px" viewBox="0 0 800 600"
	 style="enable-background:new 0 0 800 600;" xml:space="preserve">
<style type="text/css">
	.st0{fill-rule:evenodd;clip-rule:evenodd;fill:#DDE4F0;}
	.st1{fill-rule:evenodd;clip-rule:evenodd;fill:#C5D2EA;}
	.st2{fill-rule:evenodd;clip-rule:evenodd;fill:#EEF4FE;}
	.st3{fill-rule:evenodd;clip-rule:evenodd;fill:#1A996C;}
	.st4{fill-rule:evenodd;clip-rule:evenodd;fill:#0CB076;}
	.st5{fill-rule:evenodd;clip-rule:evenodd;fill:#FFC83A;}
	.st6{fill-rule:evenodd;clip-rule:evenodd;fill:#FFFFFF;}
	.st7{fill-rule:evenodd;clip-rule:evenodd;fill:#ACB9D2;}
	.st8{fill-rule:evenodd;clip-rule:evenodd;fill:#FE745F;}
	.st9{fill-rule:evenodd;clip-rule:evenodd;fill:#1F2A82;}
	.st10{fill-rule:evenodd;clip-rule:evenodd;fill:#ED533F;}
	.st11{fill-rule:evenodd;clip-rule:evenodd;fill:#FFFFFF;fill-opacity:0.3;}
	.st12{fill-rule:evenodd;clip-rule:evenodd;fill:#B14D1B;}
	.st13{fill-rule:evenodd;clip-rule:evenodd;fill:url(#SVGID_1_);}
	.st14{fill-rule:evenodd;clip-rule:evenodd;fill:url(#SVGID_2_);}
	.st15{fill-rule:evenodd;clip-rule:evenodd;fill:#E6971A;}
	.st16{fill-rule:evenodd;clip-rule:evenodd;fill:#D5880D;}
	.st17{fill-rule:evenodd;clip-rule:evenodd;fill:#00B87D;}
	.st18{fill-rule:evenodd;clip-rule:evenodd;fill:#008C5F;fill-opacity:0.6;}
	.st19{fill-rule:evenodd;clip-rule:evenodd;fill:#008C5F;}
	.st20{fill-rule:evenodd;clip-rule:evenodd;fill:#FFFF3E;}
	.st21{fill-rule:evenodd;clip-rule:evenodd;fill:url(#SVGID_3_);}
	.st22{fill-rule:evenodd;clip-rule:evenodd;fill:#1083E8;}
	.st23{fill-rule:evenodd;clip-rule:evenodd;fill:#FFFFFF;fill-opacity:0.2;}
	.st24{fill-rule:evenodd;clip-rule:evenodd;fill:#1059E8;}
	.st25{fill:url(#SVGID_4_);}
	.st26{fill:url(#SVGID_5_);}
	.st27{fill-rule:evenodd;clip-rule:evenodd;fill:#FE715F;}
	.st28{fill-rule:evenodd;clip-rule:evenodd;fill:#C7D3E9;}
	.st29{fill-rule:evenodd;clip-rule:evenodd;fill:url(#SVGID_6_);}
	.st30{fill-rule:evenodd;clip-rule:evenodd;fill:#FFFFFF;fill-opacity:0.4;}
	.st31{fill-rule:evenodd;clip-rule:evenodd;fill:url(#SVGID_7_);}
	.st32{fill-rule:evenodd;clip-rule:evenodd;fill:#FFA296;fill-opacity:0.4;}
	.st33{fill-rule:evenodd;clip-rule:evenodd;fill:#848484;}
	.st34{fill-rule:evenodd;clip-rule:evenodd;fill:#E97A00;}
	.st35{fill-rule:evenodd;clip-rule:evenodd;}
	.st36{fill-rule:evenodd;clip-rule:evenodd;fill:#FF4800;}
	.st37{fill-rule:evenodd;clip-rule:evenodd;fill:#FFC600;}
	.st38{fill-rule:evenodd;clip-rule:evenodd;fill:#00FF48;}
	.st39{fill-rule:evenodd;clip-rule:evenodd;fill:#FFAB3A;fill-opacity:0.3;}
	.st40{fill-rule:evenodd;clip-rule:evenodd;fill:#F8AD35;}
	.st41{fill-rule:evenodd;clip-rule:evenodd;fill:#D3E3FF;}
	.st42{fill-rule:evenodd;clip-rule:evenodd;fill:url(#SVGID_8_);}
	.st43{fill-rule:evenodd;clip-rule:evenodd;fill:url(#SVGID_9_);}
	.st44{fill-rule:evenodd;clip-rule:evenodd;fill:url(#SVGID_10_);}
	.st45{fill:url(#SVGID_11_);}
	.st46{fill:url(#SVGID_12_);}
	.st47{fill-rule:evenodd;clip-rule:evenodd;fill:url(#SVGID_13_);}
	.st48{fill-rule:evenodd;clip-rule:evenodd;fill:url(#SVGID_14_);}
</style>
<path class="st0" d="M356.62,157.5c-94.01,0-170.21,76.2-170.21,170.21s76.2,170.21,170.21,170.21c94,0,170.21-76.2,170.21-170.21
	S450.62,157.5,356.62,157.5z M356.62,430.92c-57,0-103.21-46.21-103.21-103.21S299.62,224.5,356.62,224.5
	c57,0,103.21,46.21,103.21,103.21S413.62,430.92,356.62,430.92z"/>
<g transform="matrix(0.590355,0,0,0.606905,57.5942,39.9631)">
	<ellipse class="st1" cx="579.63" cy="740.89" rx="474.16" ry="18.4"/>
</g>
<g transform="matrix(0.606905,0,0,0.606905,-36.6801,76.6017)">
	<path class="st2" d="M1026.33,111.61c0-2.95-1.17-5.77-3.25-7.85c-2.08-2.08-4.91-3.25-7.85-3.25c-56.46,0-311.24,0-367.7,0
		c-2.95,0-5.77,1.17-7.85,3.25s-3.25,4.91-3.25,7.85c0,44.35,0,208.52,0,252.87c0,2.94,1.17,5.77,3.25,7.85s4.91,3.25,7.85,3.25
		c56.46,0,311.24,0,367.7,0c2.94,0,5.77-1.17,7.85-3.25c2.09-2.08,3.25-4.91,3.25-7.85
		C1026.33,320.13,1026.33,155.96,1026.33,111.61z"/>
</g>
<g transform="matrix(0.921137,0,0,0.921137,62.3687,26.7843)">
	<g>
		<g transform="matrix(1,0,0,1,-4043.54,-2.87399)">
			<path class="st3" d="M4510.11,135.29h-23.18v7.21h24.35L4510.11,135.29z"/>
		</g>
		<g transform="matrix(1.90456,0,0,3.50372,-8175.5,-435.996)">
			<path class="st4" d="M4549.75,165.55c0-0.33-0.21-0.65-0.58-0.89c-0.38-0.24-0.89-0.37-1.42-0.37c-5.83,0-22.34,0-22.34,0v5.95
				c0,0.33,0.21,0.65,0.58,0.89c0.37,0.24,0.89,0.37,1.42,0.37c4.57,0,15.75,0,20.34,0c0.54,0,1.04-0.13,1.42-0.37
				c0.37-0.24,0.58-0.56,0.58-0.89C4549.75,168.92,4549.75,166.86,4549.75,165.55z"/>
		</g>
	</g>
	<g transform="matrix(1,0,0,1,-4043.54,2.05663)">
		<path class="st5" d="M4533.3,174.29c0-0.82-0.33-1.6-0.91-2.18c-0.57-0.58-1.36-0.9-2.18-0.9c-8.43,0-31.77,0-40.2,0
			c-0.82,0-1.6,0.33-2.18,0.9c-0.58,0.58-0.9,1.37-0.9,2.18v0c0,0.82,0.31,1.6,0.9,2.18c0.58,0.58,1.36,0.9,2.18,0.9
			c8.43,0,31.77,0,40.2,0c0.82,0,1.61-0.33,2.18-0.9C4532.97,175.9,4533.3,175.11,4533.3,174.29L4533.3,174.29z"/>
	</g>
	<g transform="matrix(1.26703,0,0,0.595967,-5268.6,94.8137)">
		<path class="st0" d="M4549.68,153.7c0-0.82-0.15-1.6-0.43-2.18c-0.27-0.58-0.64-0.9-1.03-0.9c-6.91,0-36.54,0-43.47,0
			c-0.39,0-0.76,0.33-1.03,0.9c-0.27,0.58-0.42,1.36-0.42,2.18c0,0,0,0,0,0.01c0,0.82,0.15,1.6,0.42,2.18
			c0.27,0.58,0.64,0.9,1.03,0.9c6.93,0,36.55,0,43.47,0c0.38,0,0.76-0.33,1.03-0.9C4549.53,155.31,4549.68,154.53,4549.68,153.7
			C4549.68,153.71,4549.68,153.71,4549.68,153.7z"/>
	</g>
</g>
<g transform="matrix(0.856547,0,0,0.856547,96.8765,94.8145)">
	<g>
		<g transform="matrix(1,0,0,1,-4043.54,0)">
			<path class="st6" d="M4504.12,143.77h-23.18v7.21h24.35L4504.12,143.77z"/>
		</g>
		<g transform="matrix(1.90456,0,0,3.03876,-8175.5,-351.54)">
			<path class="st6" d="M4546.6,166.63c0-0.33-0.21-0.65-0.58-0.89c-0.39-0.24-0.89-0.37-1.42-0.37c-5.83,0-22.34,0-22.34,0v5.95
				c0,0.33,0.21,0.65,0.58,0.89c0.37,0.24,0.89,0.37,1.42,0.37c4.57,0,15.75,0,20.34,0c0.54,0,1.04-0.13,1.42-0.37
				c0.37-0.24,0.58-0.56,0.58-0.89C4546.6,170,4546.6,167.94,4546.6,166.63z"/>
		</g>
	</g>
	<g transform="matrix(1,0,0,1,-4043.54,2.05663)">
		<path class="st6" d="M4527.31,182.29c0-1.71-1.39-3.09-3.09-3.09h-40.2c-1.7,0-3.08,1.38-3.08,3.09v0c0,1.71,1.38,3.09,3.08,3.09
			h40.2C4525.93,185.38,4527.31,183.99,4527.31,182.29L4527.31,182.29z"/>
	</g>
	<g transform="matrix(1.26703,0,0,0.595967,-5268.6,94.8137)">
		<path class="st6" d="M4544.96,167.12c0-0.82-0.15-1.6-0.43-2.18c-0.27-0.58-0.64-0.9-1.03-0.9c-6.93,0-36.54,0-43.47,0
			c-0.38,0-0.76,0.33-1.03,0.9c-0.27,0.58-0.42,1.36-0.42,2.18v0c0,0.82,0.15,1.6,0.42,2.18c0.27,0.58,0.64,0.9,1.03,0.9
			c6.93,0,36.54,0,43.47,0c0.38,0,0.76-0.33,1.03-0.9C4544.8,168.73,4544.96,167.94,4544.96,167.12L4544.96,167.12z"/>
	</g>
</g>
<g transform="matrix(0.856547,0,0,0.856547,144.297,45.4007)">
	<g>
		<g transform="matrix(1,0,0,1,-4043.54,0)">
			<path class="st7" d="M4513.31,134.19h-23.18v7.21h24.35L4513.31,134.19z"/>
		</g>
		<g transform="matrix(1.90456,0,0,3.03876,-8175.5,-351.54)">
			<path class="st1" d="M4551.43,163.47c0-0.33-0.21-0.65-0.58-0.89c-0.38-0.24-0.89-0.37-1.42-0.37c-5.83,0-22.34,0-22.34,0v5.95
				c0,0.33,0.21,0.65,0.58,0.89c0.37,0.24,0.89,0.37,1.42,0.37c4.57,0,15.75,0,20.33,0c0.54,0,1.04-0.13,1.42-0.37
				c0.37-0.24,0.58-0.56,0.58-0.89C4551.43,166.85,4551.43,164.79,4551.43,163.47z"/>
		</g>
	</g>
	<g transform="matrix(1,0,0,1,-4043.54,2.05663)">
		<path class="st7" d="M4536.51,172.71c0-1.71-1.39-3.09-3.09-3.09c-8.43,0-31.77,0-40.2,0c-1.7,0-3.08,1.38-3.08,3.09v0
			c0,1.71,1.38,3.09,3.08,3.09h40.2C4535.12,175.8,4536.51,174.42,4536.51,172.71L4536.51,172.71z"/>
	</g>
	<g transform="matrix(1.26703,0,0,0.595967,-5268.6,94.8137)">
		<path class="st0" d="M4552.21,151.05c0-0.82-0.15-1.6-0.43-2.18c-0.27-0.58-0.64-0.9-1.03-0.9c-6.93,0-36.54,0-43.47,0
			c-0.38,0-0.76,0.33-1.03,0.9c-0.27,0.58-0.42,1.36-0.42,2.18v0c0,0.82,0.15,1.6,0.42,2.18c0.27,0.58,0.64,0.9,1.03,0.9
			c6.93,0,36.54,0,43.47,0c0.38,0,0.76-0.33,1.03-0.9C4552.06,152.66,4552.21,151.87,4552.21,151.05L4552.21,151.05z"/>
	</g>
</g>
<g transform="matrix(0.856547,0,0,0.856547,144.297,94.8145)">
	<g>
		<g transform="matrix(1,0,0,1,-4043.54,0)">
			<path class="st6" d="M4513.31,143.77h-23.18v7.21h24.35L4513.31,143.77z"/>
		</g>
		<g transform="matrix(1.90456,0,0,3.03876,-8175.5,-351.54)">
			<path class="st6" d="M4551.43,166.63c0-0.33-0.21-0.65-0.58-0.89c-0.38-0.24-0.89-0.37-1.42-0.37c-5.83,0-22.34,0-22.34,0v5.95
				c0,0.33,0.21,0.65,0.58,0.89c0.37,0.24,0.89,0.37,1.42,0.37c4.57,0,15.75,0,20.33,0c0.54,0,1.04-0.13,1.42-0.37
				c0.37-0.24,0.58-0.56,0.58-0.89C4551.43,170,4551.43,167.94,4551.43,166.63z"/>
		</g>
	</g>
	<g transform="matrix(1,0,0,1,-4043.54,2.05663)">
		<path class="st6" d="M4536.51,182.29c0-1.71-1.39-3.09-3.09-3.09c-8.43,0-31.77,0-40.2,0c-1.7,0-3.08,1.38-3.08,3.09v0
			c0,1.71,1.38,3.09,3.08,3.09h40.2C4535.12,185.38,4536.51,183.99,4536.51,182.29L4536.51,182.29z"/>
	</g>
	<g transform="matrix(1.26703,0,0,0.595967,-5268.6,94.8137)">
		<path class="st6" d="M4552.21,167.12c0-0.82-0.15-1.6-0.43-2.18c-0.27-0.58-0.64-0.9-1.03-0.9c-6.93,0-36.54,0-43.47,0
			c-0.38,0-0.76,0.33-1.03,0.9c-0.27,0.58-0.42,1.36-0.42,2.18v0c0,0.82,0.15,1.6,0.42,2.18c0.27,0.58,0.64,0.9,1.03,0.9
			c6.93,0,36.54,0,43.47,0c0.38,0,0.76-0.33,1.03-0.9C4552.06,168.73,4552.21,167.94,4552.21,167.12L4552.21,167.12z"/>
	</g>
</g>
<g transform="matrix(0.856547,0,0,0.856547,49.5806,45.4007)">
	<g>
		<g transform="matrix(1,0,0,1,-4043.54,0)">
			<path class="st7" d="M4494.96,134.19h-23.18v7.21h24.35L4494.96,134.19z"/>
		</g>
		<g transform="matrix(1.90456,0,0,3.03876,-8175.5,-351.54)">
			<path class="st1" d="M4541.79,163.47c0-0.33-0.21-0.65-0.58-0.89c-0.38-0.24-0.89-0.37-1.42-0.37c-5.83,0-22.34,0-22.34,0v5.95
				c0,0.33,0.21,0.65,0.58,0.89c0.37,0.24,0.89,0.37,1.42,0.37c4.57,0,15.75,0,20.34,0c0.54,0,1.04-0.13,1.42-0.37
				c0.37-0.24,0.58-0.56,0.58-0.89C4541.79,166.85,4541.79,164.79,4541.79,163.47z"/>
		</g>
	</g>
	<g transform="matrix(1,0,0,1,-4043.54,2.05663)">
		<path class="st7" d="M4518.15,172.71c0-1.71-1.39-3.09-3.09-3.09h-40.2c-1.7,0-3.08,1.38-3.08,3.09v0c0,1.71,1.38,3.09,3.08,3.09
			c8.43,0,31.77,0,40.2,0C4516.76,175.8,4518.15,174.42,4518.15,172.71L4518.15,172.71z"/>
	</g>
	<g transform="matrix(1.26703,0,0,0.595967,-5268.6,94.8137)">
		<path class="st0" d="M4537.72,151.05c0-0.82-0.15-1.6-0.43-2.18c-0.27-0.58-0.64-0.9-1.03-0.9c-6.93,0-36.54,0-43.47,0
			c-0.38,0-0.76,0.33-1.03,0.9c-0.27,0.58-0.42,1.36-0.42,2.18v0c0,0.82,0.15,1.6,0.42,2.18c0.27,0.58,0.64,0.9,1.03,0.9
			c6.93,0,36.54,0,43.47,0c0.38,0,0.76-0.33,1.03-0.9C4537.57,152.66,4537.72,151.87,4537.72,151.05L4537.72,151.05z"/>
	</g>
</g>
<g transform="matrix(0.856547,0,0,0.856547,49.5806,94.8145)">
	<g>
		<g transform="matrix(1,0,0,1,-4043.54,0)">
			<path class="st6" d="M4494.96,143.77h-23.18v7.21h24.35L4494.96,143.77z"/>
		</g>
		<g transform="matrix(1.90456,0,0,3.03876,-8175.5,-351.54)">
			<path class="st6" d="M4541.79,166.63c0-0.33-0.21-0.65-0.58-0.89c-0.38-0.24-0.89-0.37-1.42-0.37c-5.83,0-22.34,0-22.34,0v5.95
				c0,0.33,0.21,0.65,0.58,0.89c0.37,0.24,0.89,0.37,1.42,0.37c4.57,0,15.75,0,20.34,0c0.54,0,1.04-0.13,1.42-0.37
				c0.37-0.24,0.58-0.56,0.58-0.89C4541.79,170,4541.79,167.94,4541.79,166.63z"/>
		</g>
	</g>
	<g transform="matrix(1,0,0,1,-4043.54,2.05663)">
		<path class="st6" d="M4518.15,182.29c0-1.71-1.39-3.09-3.09-3.09h-40.2c-1.7,0-3.08,1.38-3.08,3.09v0c0,1.71,1.38,3.09,3.08,3.09
			c8.43,0,31.77,0,40.2,0C4516.76,185.38,4518.15,183.99,4518.15,182.29L4518.15,182.29z"/>
	</g>
	<g transform="matrix(1.26703,0,0,0.595967,-5268.6,94.8137)">
		<path class="st6" d="M4537.72,167.12c0-0.82-0.15-1.6-0.43-2.18c-0.27-0.58-0.64-0.9-1.03-0.9c-6.93,0-36.54,0-43.47,0
			c-0.38,0-0.76,0.33-1.03,0.9c-0.27,0.58-0.42,1.36-0.42,2.18v0c0,0.82,0.15,1.6,0.42,2.18c0.27,0.58,0.64,0.9,1.03,0.9
			c6.93,0,36.54,0,43.47,0c0.38,0,0.76-0.33,1.03-0.9C4537.57,168.73,4537.72,167.94,4537.72,167.12L4537.72,167.12z"/>
	</g>
</g>
<g transform="matrix(0.856547,0,0,0.856547,-3314.27,51.6376)">
	<path class="st6" d="M4339.57,140.47c0-0.89-0.35-1.74-0.98-2.36c-0.63-0.63-1.48-0.98-2.37-0.98c-8.42,0-30.48,0-38.9,0
		c-0.89,0-1.74,0.35-2.37,0.98c-0.63,0.63-0.98,1.48-0.98,2.36v0c0,0.89,0.35,1.74,0.98,2.36c0.63,0.63,1.48,0.98,2.37,0.98
		c8.42,0,30.48,0,38.9,0c0.89,0,1.74-0.35,2.37-0.98C4339.22,142.2,4339.57,141.36,4339.57,140.47L4339.57,140.47z"/>
</g>
<g transform="matrix(0.856547,0,0,0.856547,-3314.27,67.9656)">
	<path class="st6" d="M4339.57,143.63c0-0.89-0.35-1.74-0.98-2.36c-0.63-0.63-1.48-0.98-2.37-0.98c-8.42,0-30.48,0-38.9,0
		c-0.89,0-1.74,0.35-2.37,0.98c-0.63,0.63-0.98,1.48-0.98,2.36v0c0,0.89,0.35,1.74,0.98,2.36c0.63,0.63,1.48,0.98,2.37,0.98
		c8.42,0,30.48,0,38.9,0c0.89,0,1.74-0.35,2.37-0.98C4339.22,145.37,4339.57,144.52,4339.57,143.63L4339.57,143.63z"/>
</g>
<g transform="matrix(0.856547,0,0,0.856547,-3314.27,84.2937)">
	<path class="st6" d="M4339.57,146.8c0-0.89-0.35-1.74-0.98-2.36c-0.63-0.63-1.48-0.98-2.37-0.98c-8.42,0-30.48,0-38.9,0
		c-0.89,0-1.74,0.35-2.37,0.98c-0.63,0.63-0.98,1.48-0.98,2.36v0c0,0.89,0.35,1.74,0.98,2.36c0.63,0.63,1.48,0.98,2.37,0.98
		c8.42,0,30.48,0,38.9,0c0.89,0,1.74-0.35,2.37-0.98C4339.22,148.53,4339.57,147.69,4339.57,146.8L4339.57,146.8z"/>
</g>
<g transform="matrix(0.856547,0,0,0.856547,-3314.27,100.622)">
	<path class="st6" d="M4339.57,149.96c0-0.89-0.35-1.74-0.98-2.36c-0.63-0.63-1.48-0.98-2.37-0.98c-8.42,0-30.48,0-38.9,0
		c-0.89,0-1.74,0.35-2.37,0.98c-0.63,0.63-0.98,1.48-0.98,2.36v0c0,0.89,0.35,1.74,0.98,2.36c0.63,0.63,1.48,0.98,2.37,0.98
		c8.42,0,30.48,0,38.9,0c0.89,0,1.74-0.35,2.37-0.98C4339.22,151.7,4339.57,150.85,4339.57,149.96L4339.57,149.96z"/>
</g>
<g transform="matrix(0.856547,0,0,0.856547,-3314.27,116.95)">
	<path class="st6" d="M4339.57,153.13c0-0.89-0.35-1.74-0.98-2.36c-0.63-0.63-1.48-0.98-2.37-0.98c-8.42,0-30.48,0-38.9,0
		c-0.89,0-1.74,0.35-2.37,0.98c-0.63,0.63-0.98,1.48-0.98,2.36v0c0,0.89,0.35,1.74,0.98,2.36c0.63,0.63,1.48,0.98,2.37,0.98
		c8.42,0,30.48,0,38.9,0c0.89,0,1.74-0.35,2.37-0.98C4339.22,154.86,4339.57,154.01,4339.57,153.13L4339.57,153.13z"/>
</g>
<g transform="matrix(0.856547,0,0,0.856547,-3314.27,133.278)">
	<path class="st6" d="M4339.57,156.29c0-0.89-0.35-1.74-0.98-2.36c-0.63-0.63-1.48-0.98-2.37-0.98c-8.42,0-30.48,0-38.9,0
		c-0.89,0-1.74,0.35-2.37,0.98c-0.63,0.63-0.98,1.48-0.98,2.36v0c0,0.89,0.35,1.74,0.98,2.36c0.63,0.63,1.48,0.98,2.37,0.98
		c8.42,0,30.48,0,38.9,0c0.89,0,1.74-0.35,2.37-0.98C4339.22,158.03,4339.57,157.18,4339.57,156.29L4339.57,156.29z"/>
</g>
<g>
	<g transform="matrix(0.606905,0,0,0.606905,-36.6801,80.2315)">
		<path class="st8" d="M786.4,239.82c0,0,0,0-0.02,0.02c-0.02,0.02-0.03,0.05-0.05,0.07c-0.18,0.31-0.4,0.59-0.61,0.84
			c-0.21,0.3-0.46,0.56-0.69,0.81c-0.23,0.25-0.48,0.49-0.72,0.71c-1.22,1.1-2.47,1.89-3.2,2.77c-0.91,1.07-0.79,3.13-0.35,5.14
			c0.58,2.7,1.73,5.32,1.73,5.32s-16.53,17.43-23.6,2.31c-1.75-3.72-3.23-6.52-4.58-8.75c-0.02-0.02-0.03-0.02-0.03-0.02
			c-4.22-6.74-7.53-8.11-14.8-14.15c-9.67-8.04-6.89-19.57,2.27-28.23c4.48-4.23,10.87-6.39,17.04-6.48
			c6.48-0.12,12.7,2.04,16.23,6.48c0,0,0.41,0.54,1.1,1.48c2.27,3.1,7.5,10.58,10.1,17.35c0.58,1.47,1.02,2.92,1.29,4.27
			C788.48,234.63,787.72,237.7,786.4,239.82z"/>
	</g>
	<g>
		<path class="st9" d="M431.2,212.41c0,0,4.18,5.98,2.49,6.41c-1.68,0.43-6.53-0.25-6.87,3.75c-0.34,3.99,5.45,3.27,1.63,6.46
			c-3.66,3.06-7.04,2.41-7.33,2.35c-0.01-0.01-0.02-0.01-0.02-0.01c-2.56-4.09-4.57-4.92-8.98-8.59
			c-5.87-4.88-4.18-11.88,1.38-17.13c2.72-2.57,6.6-3.88,10.34-3.93c3.93-0.07,7.71,1.24,9.85,3.93c0,0,0.25,0.33,0.67,0.9
			c-0.1,0.99-0.38,2.05-0.95,3.11C432.93,210.6,432.21,211.53,431.2,212.41z"/>
		<path class="st10" d="M440.58,225.79c-0.99,1.59-2.49,2.3-3.2,3.15c-0.55,0.65-0.48,1.9-0.21,3.12c-1.35,0.02-2.76-0.29-3.48-1.43
			c-1.65-2.61,0.52-3.69,3.2-3.61C439.4,227.09,440.46,225.93,440.58,225.79z"/>
		<g transform="matrix(1.41134,0,0,1.41134,-4031.55,-35.8055)">
			<path class="st11" d="M3168.65,179.18c-0.16,0.01-1.34-0.07-3.2-3.1c-0.55-0.9-1.17-1.6-1.82-2.16c-1.7-1.49-3.61-2.09-5.04-3.16
				c-0.98-0.73-1.48-1.69-1.74-2.47c2.78-0.05,5.46,0.88,6.98,2.78c0,0,0.18,0.23,0.47,0.64
				C3165.28,173.05,3167.53,176.27,3168.65,179.18z"/>
		</g>
	</g>
</g>
<g transform="matrix(0.606905,0,0,0.606905,-36.6801,80.2315)">
	<path class="st8" d="M885.54,211.46c0,0,5.55-18.36-4.48-16.69c0,0-3.81-8.09-7.59-2.6c0,0-4.48-12.02-8.53-11.38
		c-4.05,0.64,0.07,5.54,2.75,13.98c2.69,8.44,4.73,14.61,4.73,14.61l6.62,5.18L885.54,211.46z"/>
</g>
<g transform="matrix(0.606905,0,0,0.606905,-36.6801,80.2315)">
	<path class="st8" d="M717.84,400.66c0,0-15.83,10.48-15.68,18.66c0.14,8.17,17.14,2.56,22.18-3.28c0,0,5.24,4.97,9.74,3.28
		c4.5-1.69,0.51-5.41-0.64-9.28c-1.14-3.87,0.95-6.92,1.8-8.38C735.23,401.66,722.87,392.77,717.84,400.66z"/>
</g>
<g transform="matrix(0.606905,0,0,0.606905,-36.6801,80.2315)">
	<path class="st12" d="M772.54,634.07c0,0-11.63,24.6-6.97,26.65c4.67,2.05,18.26,9.79,18.98,13.82h-55.17l6.78-39.12
		C748.41,625.51,760.59,620.89,772.54,634.07z"/>
</g>
<g transform="matrix(0.606905,0,0,0.606905,-36.6801,80.2315)">
	
		<linearGradient id="SVGID_1_" gradientUnits="userSpaceOnUse" x1="-1370.9207" y1="843.8105" x2="-1369.9207" y2="843.8105" gradientTransform="matrix(18.8047 -111.0599 -111.0602 -18.8047 120257.9219 -135759.5938)">
		<stop  offset="0" style="stop-color:#1C2465"/>
		<stop  offset="1" style="stop-color:#050A2F"/>
	</linearGradient>
	<path class="st13" d="M826.76,469.77c0,0-3.06,24.06-12.26,62.32c-2.16,8.98-10.76,24.53-13.21,33.97
		c-8.32,32.06-19.47,63.95-33.17,78.41c0,0-31.47,0.68-33.52,0c-2.05-0.68,22.62-94.17,26.1-139.45
		c2.34-30.47,8.34-117.28,8.34-117.28s15.4-28.11,29.55-2.83C812.75,410.2,826.76,469.77,826.76,469.77z"/>
</g>
<g transform="matrix(0.606905,0,0,0.606905,-36.6801,80.2315)">
	<path class="st12" d="M867.66,596.29v37.78l13.43,40.47h59.11c0,0-2.89-7.15-13.09-10.18c-10.2-3.03-13.81-7.01-16.86-16.04
		c-3.05-9.03-4.96-16.98-4.96-16.98L867.66,596.29z"/>
</g>
<g transform="matrix(0.606905,0,0,0.606905,-36.6801,80.2315)">
	
		<linearGradient id="SVGID_2_" gradientUnits="userSpaceOnUse" x1="-1376.0651" y1="848.3554" x2="-1375.0651" y2="848.3554" gradientTransform="matrix(-59.4285 -157.0927 -157.0931 59.4283 52396.6797 -265955.9062)">
		<stop  offset="0" style="stop-color:#1F2A82"/>
		<stop  offset="1" style="stop-color:#131D6C"/>
	</linearGradient>
	<path class="st14" d="M780.45,382.68c0,0,32.93,106.11,46.45,144.75c13.52,38.63,42.23,111.27,43.6,115.2
		c1.37,3.94,29.86,0.45,37.82-0.35c7.95-0.79-0.4-39-6.72-62.7c-6.31-23.7-54.84-199.45-54.84-199.45S787.92,345.73,780.45,382.68z"
		/>
</g>
<g transform="matrix(0.375923,0,0,0.130207,523.301,305.62)">
	<g transform="matrix(1.40625,0,0,4.06,-486.559,-1463.22)">
		<path class="st15" d="M565.62,634.48c0,0-2.61,18.48-5.22,36.96c-1.61,11.22-3.2,22.43-4.2,29.53c-0.61,4.29-4.28,7.49-8.61,7.49
			h-63.12c-4.33,0-8-3.2-8.61-7.49c-1.65-11.54-4.82-33.95-7.04-49.56c-1.38-9.82-2.38-16.93-2.38-16.93H565.62z"/>
	</g>
	<g>
		<g transform="matrix(1.62028,0,0,1.62028,-5341.69,-107.06)">
			<path class="st16" d="M3487.38,752.85c0,0-2.27,46.31-4.53,92.62c-9.1-13.03-20.98-30.76-30.29-44.79
				c-9.8-14.74-21.01-19.72-31.9-14.22c-6.83,3.51-13.91,7.11-17.29,8.82c-1.2-24.6-2.07-42.42-2.07-42.42H3487.38z"/>
		</g>
	</g>
	<g transform="matrix(1.40625,0,0,4.06,-487.969,-1463.22)">
		<path class="st17" d="M584.61,456.21c11.22,5.77,13.13,23.7,0,23.46c-0.64-0.02-1.31-0.02-1.97-0.04
			c-3.97-0.09-8.12-0.25-11.92-0.15c-8.36,0.19-15.11,1.53-15,7.09c0.04,1.55,0.72,2.38,1.85,2.8c4.82,1.91,17.63-3.1,21.09,13.94
			c0.15,0.68,0.26,1.42,0.38,2.18c2.61,18.39-10.93,25.93-29.13,36.4c-0.34,0.21-0.68,0.4-1.02,0.61
			c-5.32,3.05-10.99,6.37-16.76,10.31C506.07,570.58,517,625.55,517,625.55s-2.06,1.57-3.27-5.77c-1.21-7.36-3.59-37.66-3.06-48.18
			c0.3-6.15-4.01-12.66-7.85-22.47c-1.21-3.08-2.36-6.51-3.33-10.35c-1.21-4.82-2.08-10.33-2.33-16.68
			c-0.93-24.89,9.97-37.7,20.83-43c0.36-0.17,0.72-0.32,1.08-0.49c0.74-0.32,1.48-0.61,2.21-0.87c11.84-4.2,9.44-9.21,5.32-15.87
			c-4.14-6.66-1.55-13.07,5.54-16.44c7.09-3.39,15.17-6.05,23.59-20.56c8.44-14.51,28.54-18.88,41.48-7.91
			c12.92,10.99-6.53,17.33-16.08,21.87C571.55,443.39,573.37,450.46,584.61,456.21z"/>
		<g>
			<g transform="matrix(1.14805,0,0,1.14805,-645.515,-155.306)">
				<path class="st18" d="M1038.24,598.07c1.09,3.05,2.09,6.11,3.03,9.21c-0.3,0.18-0.59,0.35-0.89,0.53
					c-0.99-3.26-2.06-6.51-3.21-9.72c-2.97,3.16-16.72,17.09-29.1,16.53c-2.98-0.13-5.65-0.48-7.83-1.02
					c-1.05-2.69-2.06-5.67-2.9-9.01c1.81-1.47,4.48-3.08,8.17-4.84c15.8-7.53,27.88-3.99,31.27-2.69
					c-5.77-15.8-13.48-30.84-23.33-44.45c0.31-0.15,0.63-0.28,0.94-0.43c0.33,0.46,0.66,0.92,0.99,1.38
					c9.36,13.23,16.74,27.76,22.33,43.02c-0.05-5.73,0.58-24.37,10.23-35.03c4.2,1.66,15.36-2.7,18.37,12.14
					C1058.21,588.17,1041.35,596.62,1038.24,598.07z"/>
				<path class="st18" d="M1059.39,552.92c4.73-2.36,8.57-2.52,10.38,0.13C1066.31,552.97,1062.71,552.84,1059.39,552.92z"/>
			</g>
		</g>
		<path class="st6" d="M584.74,416.61l0.21,0.2l0,0.29c-0.09,0.13-0.1,0.16-0.42,0.3c-2.44,1.11-4.67,2.61-6.84,4.17
			c-10.78,7.8-19.41,18.29-26.84,29.44c-5.34,8.02-10.02,16.49-13.91,25.32c-8.49,19.26-14.21,39.67-18.11,60.31
			c-3.92,20.73-5.97,41.84-4.83,62.78c0.41,7.53,1.28,15.06,2.75,22.43l0.06,0.29l-0.06,0.29c-0.1,0.1-0.1,0.1-0.24,0.16l-0.15,0
			c-0.14-0.06-0.14-0.06-0.24-0.16l-0.06-0.14c-3.78-18.66-3.79-37.97-2.04-57.08c1.82-19.9,5.66-39.66,11.3-58.89
			c4.73-16.11,10.62-31.89,19.06-46.37c6.99-12,15.18-23.38,25.35-32.8c4.17-3.86,8.64-7.5,13.68-10.07
			c0.34-0.17,0.68-0.34,1.02-0.49C584.44,416.62,584.58,416.58,584.74,416.61z"/>
		<g transform="matrix(1.14805,0,0,1.14805,-669.121,-132.617)">
			<path class="st19" d="M947.54,505.6c-2.72-2.44-10.49-10.78-11.05-26.89c-0.68-19.47,15.59-11.56,12.03,27.22
				c8.93,3.04,17.4,7.5,25.02,12.69c9.61,6.54,18.36,14.34,26.11,22.87c0.24-53.69,21.36-62.53,18.57-40.3
				c-2.65,21.01-16.8,38.52-18.42,40.46c4.4,4.86,8.47,9.95,12.17,15.19c9.35,13.23,16.74,27.75,22.32,43.02
				c-0.05-6.08,0.66-26.68,12.09-36.88c13.5-12.05,25.82-12.95,19.43,7.32c-5.85,18.58-27.42,29.39-30.98,31.07
				c5.14,14.43,8.66,29.49,10.69,44.73c0.64,4.86,1.18,9.75,1.32,14.64c0,0,0.09,0.04-0.12,0.38l-0.33,0.14l-0.33-0.13
				c0,0-0.14-0.64-0.17-1.32c-0.61-13.1-2.93-26.09-6.17-38.84c-1.68-6.62-3.66-13.17-5.97-19.59c-2.96,3.17-16.72,17.08-29.1,16.52
				c-13.96-0.63-21.29-5.94-2.55-14.87c15.81-7.54,27.89-3.98,31.28-2.69c-7.72-21.12-18.9-40.89-33.99-57.67
				c-0.33,0.99-5.17,14.84-17.93,20.61c-13.25,5.98-10.73-7.03-2.38-13.42c7.99-6.12,19.32-7.16,20.27-7.24
				c-1.92-2.14-3.92-4.24-5.97-6.28c-11.96-11.87-25.56-22.09-41.78-28.33c-0.9-0.35-1.81-0.68-2.72-1
				c0.58,3.3,2.88,19.53-7.16,26.19c-11.02,7.31-5.54-19.52,6.42-26.45c-10.8-3.7-22.4-5.46-33.63-3.4
				c-0.87,0.16-1.74,0.34-2.59,0.59l-0.37-0.03c-0.02-0.02-0.05-0.04-0.07-0.06c-2.1,2.52-15.64,18.31-32.17,25.79
				c-17.94,8.11-8.04-29.82,32-26.18l0,0c0.12-0.39,0.33-0.39,0.33-0.39c3.87-1.19,8.1-1.42,12.27-1.43c0.08,0,0.17,0,0.27,0
				C932.12,501.66,939.99,503.12,947.54,505.6z"/>
		</g>
	</g>
	<g transform="matrix(1.40625,0,0,4.06,-487.969,-1463.22)">
		<rect x="460.03" y="617.23" class="st20" width="114.01" height="22.44"/>
	</g>
</g>
<g transform="matrix(0.606905,0,0,0.606905,-36.6801,80.2315)">
	<linearGradient id="SVGID_3_" gradientUnits="userSpaceOnUse" x1="833.8635" y1="406.7275" x2="800.9338" y2="304.6685">
		<stop  offset="0" style="stop-color:#1059E8"/>
		<stop  offset="1" style="stop-color:#10DBE8"/>
	</linearGradient>
	<path class="st21" d="M884.98,272.33c-7.4,38-12.14,32.53-64.16,20.43c0,0,8.3,25.42,15.39,48.61c4.76,15.49,8.98,29.99,9.8,35.21
		c2.08,13.03-4.91,10.79-25.19,8.98c-20.28-1.81-35.03,3.18-44.21,6.61c-9.16,3.43-9,3.36-10.87-18.59
		c-1.78-21.09-11.47-48.97-14.86-59.43c0,0-6.49,24.24-11.17,51.11c-2.13,12.26-3.89,25.08-4.47,36.4c0,0-8.83,7.46-22.29-1.66
		c0,0-1.96-50.19,10.94-97.94c12.72-47.01,41.74-50.47,77.38-45.59c0.54,0.07,1.1,0.15,1.66,0.23c36.4,5.21,52.13,15.95,57.47,4.32
		c5.34-11.63,10.71-40.63,12.03-51.62c0,0,0.99-0.25,2.5-0.53c3.77-0.68,10.86-1.6,14.01,0.53
		C888.94,209.39,892.38,234.35,884.98,272.33z"/>
</g>
<path class="st22" d="M470.82,287.41c-2.07,0.79-4.13,0.46-5.75-1.84c-5.32-7.53-9.16-25.04-15.45-26.57c-6.28-1.53-5.79-5.38,0-4.1
	c5.8,1.28,11.86,3.01,11.86,3.01S466.52,273.34,470.82,287.41z"/>
<path class="st22" d="M419.03,270.89c0,0-3.94,14.71-6.78,31.02c-1.59,1.73-3.02,2.1-3.8,0.19c-2.04-4.98,5.7-35.97,5.7-35.97
	c-1.68-8.07,0-11.81,1.12-8.28C416.4,261.38,419.03,270.89,419.03,270.89z"/>
<g transform="matrix(1.41134,0,0,1.41134,-4031.55,-35.8055)">
	<path class="st23" d="M3207.3,179.18c-0.88,11.1-6.3,22.15-12.36,20.72c-5.25-1.25-16.65-3.77-19.83-7.4
		c0.23,0.03,0.47,0.06,0.72,0.1c15.65,2.24,22.42,6.86,24.71,1.86c2.3-5,4.61-17.47,5.17-22.2c0,0,0.43-0.11,1.08-0.23
		C3207.3,173.79,3207.55,176.08,3207.3,179.18z"/>
</g>
<g transform="matrix(1,0,0,1,58.8539,-14.456)">
	<circle class="st9" cx="153.48" cy="496.06" r="8.01"/>
</g>
<g transform="matrix(1,0,0,1,-12.9989,0)">
	<path class="st9" d="M220.65,460.98c3.7,0.07,7,3.21,7.08,7.08v13.55c0,0-0.32,2.29-2,2.99c-1.94,0.8-4.38-0.7-4.47-2.99
		c0-4.48,0-8.97,0-13.45c0-0.38-0.32-0.7-0.68-0.71c-14.73-0.28-29.47,0-44.21,0c-0.39,0-0.71,0.31-0.71,0.71v9.77
		c0,0-1.65,4.43-4.7,2.88c-1.05-0.54-1.72-1.67-1.76-2.88c0-5.56-1.17-11.97,2.42-15.15c1.27-1.12,2.94-1.76,4.66-1.79
		C191.07,460.89,205.86,460.89,220.65,460.98z"/>
</g>
<g transform="matrix(0.619676,0,0,2.06168,175.333,-594.401)">
	<rect x="-30.77" y="442.92" class="st9" width="7.31" height="41.72"/>
</g>
<g transform="matrix(1,0,0,0.945251,-4.879,30.1008)">
	<rect x="186.22" y="400.38" class="st9" width="7.71" height="68.02"/>
</g>
<path class="st24" d="M209.33,425.65h-9.68c0,0-10.36,5.44-10.6,7.44c-0.24,2,8.58,28,10.6,23.34c2.02-4.66,1.72-12.16,1.72-12.16
	l3.99-2.82L209.33,425.65z"/>
<g transform="matrix(0.968394,-0.249424,0.249424,0.968394,-125.171,169.041)">
	<path class="st24" d="M271.87,365.51l-8.3,1.48c0,0-6.84,11.25-10.32,16.97c-1.13,1.86-0.57,4.28,1.26,5.45
		c6.5,4.33,20.69,13.69,23.39,14.36c3.53,0.88-1.4-7.76-2.88-11.44c-2.48-6.15,3.4-15.01,3.4-15.01l0-10.33L271.87,365.51z"/>
</g>
<linearGradient id="SVGID_4_" gradientUnits="userSpaceOnUse" x1="199.6439" y1="404.784" x2="276.81" y2="404.784">
	<stop  offset="0" style="stop-color:#1C2465"/>
	<stop  offset="1" style="stop-color:#050A2F"/>
</linearGradient>
<path class="st25" d="M207,373.21l10.67-5.08c0,0,57.46,20.69,58.97,32.61c1.5,11.92-6.48,18.07-30.29,26.71
	c-23.81,8.64-40.98,14-40.98,14s-5.4-8.59-5.72-15.8c0,0,21.65-12.85,26.4-16.2C230.78,406.1,207,373.21,207,373.21z"/>
<linearGradient id="SVGID_5_" gradientUnits="userSpaceOnUse" x1="176.1875" y1="415.0501" x2="269.1329" y2="415.0501">
	<stop  offset="0" style="stop-color:#1F2A82"/>
	<stop  offset="1" style="stop-color:#131D6C"/>
</linearGradient>
<path class="st26" d="M180.5,359.14l-3.73,5.03c0,0-6.92,28.89,26.75,38.47c33.67,9.59,38.58,11.82,32.72,19.98
	c-8.47,11.78-15.9,40.2-15.9,40.2s3.33,5.38,19.55,8.14c0,0,26.06-43.76,29.06-59.84c3-16.08-32.76-33.21-51.29-43.01
	C199.14,358.32,180.5,359.14,180.5,359.14z"/>
<g transform="matrix(0.991175,0.132562,-0.132562,0.991175,64.9206,-81.019)">
	<path class="st27" d="M254.02,398.77c0,0,1.83-1.99,11.17-1.07c9.33,0.92,12.55,5.12,11.87,5.83c-0.68,0.71-19.49,2.44-21.48,2.02
		C253.58,405.13,254.02,398.77,254.02,398.77z"/>
</g>
<g>
	<path class="st28" d="M233.45,308.68l3.77,2.06c0,0-0.86,35.45-0.98,38.35c-0.12,2.89-15.9-4.95-15.9-4.95L233.45,308.68z"/>
	<linearGradient id="SVGID_6_" gradientUnits="userSpaceOnUse" x1="223.2255" y1="280.5005" x2="196.0049" y2="368.1883">
		<stop  offset="0" style="stop-color:#FFFFFF"/>
		<stop  offset="1" style="stop-color:#D6E0F3"/>
	</linearGradient>
	<path class="st29" d="M230.16,333.77v0.01c-0.02,0.06-0.05,0.11-0.08,0.17c-2.03,4.24-3.88,8.68-5.48,12.91
		c-2.84,7.49-4.94,14.32-6.05,18.12c-0.57,1.99-0.88,3.15-0.88,3.15c-8.95-0.53-40.9-3.96-40.9-3.96
		c1.46-32.08,10.38-42.53,21.11-57.56c10.72-15.02,28.16-13.87,28.16-13.87h10.76c0,0-0.53,2.84-0.41,7.28
		c0.04,1.58,0.16,3.37,0.41,5.3C237.78,312.66,237.59,318.27,230.16,333.77z"/>
	<path class="st28" d="M224.6,346.86c-2.84,7.49-4.94,14.32-6.05,18.12c-10.28-5.03-6.39-12.51-6.39-12.51
		c-7.01-9.92-12.97-28.54-10.59-33.84s10.59,6.86,10.59,6.86S223.97,344.13,224.6,346.86z"/>
	<g>
		<g transform="matrix(1.46747,0,0,1.46747,-4248.06,-49.9586)">
			<path class="st30" d="M3051.66,261.49c0.14-2.73-0.15-17.5,0.9-20.34c0.7-1.9,1.82-2.8,3.35-2.66c0.03,1.08,0.11,2.3,0.28,3.61
				C3056.85,247.1,3056.72,250.93,3051.66,261.49z"/>
		</g>
	</g>
	<linearGradient id="SVGID_7_" gradientUnits="userSpaceOnUse" x1="249.4189" y1="288.6316" x2="222.1982" y2="376.3194">
		<stop  offset="0" style="stop-color:#FFFFFF"/>
		<stop  offset="1" style="stop-color:#D6E0F3"/>
	</linearGradient>
	<path class="st31" d="M268.95,350.07c0.06,2.47-0.45,5.35-2.3,6.38c-3.11,1.72-40.96,5.08-48.24,0
		c-7.28-5.08-14.35-33.07-14.87-44.66c-0.53-11.59,18.06-16.77,21.84-5.18c0,0,2.07,16.59,4.78,27.15v0.01
		c1.21,4.7,2.54,8.21,3.87,8.52c4.32,1,33.45,2.55,34.26,4.02C268.62,346.91,268.92,348.39,268.95,350.07z"/>
	<g>
		<g transform="matrix(1.46747,0,0,1.46747,-4248.06,-49.9586)">
			<path class="st30" d="M3078.09,272.6c-5.65-0.46-16.52-1.2-20.89-1.67c-5.02-0.55-5.69-6.71-5.55-9.44
				c0.82,3.2,1.73,5.59,2.64,5.81c2.94,0.68,22.79,1.74,23.35,2.74C3077.87,270.44,3078.07,271.45,3078.09,272.6z"/>
		</g>
	</g>
</g>
<g>
	<path class="st27" d="M266.46,276.93c0.12,3-0.35,6.18-1.41,9.36c-3.23,9.65-10.25,15.88-17.29,14.11
		c-0.68-0.16-1.36-0.41-2.04-0.73c-1.65-0.78-3.62-0.37-4.82,1.01c-0.25,0.26-0.5,0.53-0.76,0.8c-1.47,1.56-2.97,3.22-3.34,3.84
		c-0.3,0.52-2.04-1.33-4.03-3.76c-3.06-3.73-6.73-8.82-6.73-8.82s5.23-1.77,6.7-7.18c0.31-1.16,0.46-2.48,0.34-3.99
		c-0.66-8.56,0.92-20.9,15.72-21.38c6.31-0.2,10.99,2.11,13.94,5.86C265.05,268.98,266.31,272.78,266.46,276.93z"/>
	<g>
		<path class="st9" d="M266.46,276.93c-0.81,1.19-2.29,1.27-3.85,0.88c-2.76-0.67-5.79-2.79-5.79-2.79s-4.61,7.62-6.46,4.83
			c-1.93-2.91-5.98-9.26-8.6-4.83c-2.62,4.44,1.08,8.28,1.08,8.28c-3.09,3.91-7.14,3.43-10.1,2.26c0.31-1.16,0.46-2.48,0.34-3.99
			c-0.66-8.56,0.92-20.9,15.72-21.38c6.31-0.2,10.99,2.11,13.94,5.86C265.05,268.98,266.31,272.78,266.46,276.93z"/>
		<g transform="matrix(1.46747,0,0,1.46747,-4248.06,-49.9586)">
			<path class="st32" d="M3058.46,239.49c-1,1.06-2.02,2.19-2.28,2.62c-0.2,0.35-1.39-0.91-2.75-2.56
				C3054.57,238.15,3056.27,238.11,3058.46,239.49z"/>
			<path class="st32" d="M3076.4,222.76c0.08,2.04-0.24,4.21-0.96,6.38c-2.2,6.58-6.98,10.82-11.78,9.62
				c2.39-1.36,4.91-3.77,6.73-6.39c2.02-2.91,3.07-6.12,3.39-9c0.2-1.89,0.1-3.64-0.28-5.06c-0.36-1.4-0.1-2.34,0.37-2.95
				C3075.44,217.34,3076.29,219.93,3076.4,222.76z"/>
		</g>
	</g>
</g>
<g transform="matrix(1,0,0,1,2.39449,1.14194)">
	<rect x="250.83" y="356.12" class="st6" width="106.94" height="3.76"/>
</g>
<g transform="matrix(1.10126,0,0,1.1246,-77.3753,-59.5047)">
	<rect x="388.42" y="372.51" class="st6" width="1.67" height="115.73"/>
</g>
<g transform="matrix(1.10126,0,0,1.1246,-211.906,-59.5047)">
	<rect x="427.44" y="372.51" class="st6" width="1.67" height="115.73"/>
</g>
<g transform="matrix(1,0,0,1,0.157779,-0.999997)">
	<path class="st33" d="M326.76,306.26c0.42,0.1,0.47,0.25,0.56,0.49L338,345.58c1.59,5.94-3.09,12.64-9.67,12.69h-21.68
		c-0.73-0.06-0.83-1.29,0-1.36h21.67c5.29-0.04,9.84-5.45,8.36-10.97l-10.67-38.82C325.89,306.47,326.11,306.22,326.76,306.26z"/>
</g>
<g transform="matrix(1.97178,0,0,1,-629.218,0)">
	<path class="st33" d="M471.95,355.9v1.36h-14.83c-0.73-0.06-0.83-1.29,0-1.36H471.95z"/>
</g>
<g transform="matrix(1,0,0,1,0.157779,-0.999997)">
	<path class="st6" d="M346.44,263.69c2.2,0.45-0.84,4.39-2.71,7.69c-12.95,22.78-21.03,48.38-25.17,74.24c0,0-0.56,1.27-1.55,0.94
		c-0.86-0.28-0.79-1.46-0.62-2.49c4.43-26.81,12.9-53.24,26.73-76.39C344.1,266.06,344.84,263.62,346.44,263.69z"/>
</g>
<g transform="matrix(1.15094,0,0,1,-110.991,1.28793)">
	<path class="st4" d="M285.27,403.5c0-1.91-0.66-3.74-1.83-5.09c-1.17-1.35-2.76-2.11-4.42-2.11h-40.55c-1.66,0-3.25,0.76-4.42,2.11
		c-1.17,1.35-1.83,3.18-1.83,5.09v0c0,1.91,0.66,3.74,1.83,5.09c1.17,1.35,2.76,2.11,4.42,2.11h40.55c1.66,0,3.25-0.76,4.42-2.11
		C284.61,407.24,285.27,405.41,285.27,403.5L285.27,403.5z"/>
</g>
<g transform="matrix(0.165189,0.986262,-0.986262,0.165189,933.915,-187.887)">
	<path class="st4" d="M417.7,846.7c0-1.91-0.76-3.74-2.11-5.09c-1.35-1.35-3.18-2.11-5.09-2.11c-10.14,0-28.53,0-38.67,0
		c-1.91,0-3.74,0.76-5.09,2.11c-1.35,1.35-2.11,3.18-2.11,5.09c0,0,0,0,0,0c0,1.91,0.76,3.74,2.11,5.09
		c1.35,1.35,3.18,2.11,5.09,2.11c10.14,0,28.52,0,38.67,0c1.91,0,3.74-0.76,5.09-2.11C416.94,850.44,417.7,848.61,417.7,846.7
		C417.7,846.7,417.7,846.7,417.7,846.7z"/>
</g>
<g transform="matrix(1,0,0,1,-20.0074,-14.456)">
	<circle class="st9" cx="178.67" cy="496.06" r="8.01"/>
</g>
<g transform="matrix(3.71622e-17,0.606905,-0.606905,3.71622e-17,936.802,-384.327)">
	<g transform="matrix(0.611552,0,0,0.611552,510.792,114.961)">
		<g transform="matrix(0.753485,0,0,0.753485,292.534,95.1527)">
			<circle class="st34" cx="1168.04" cy="540.33" r="6.59"/>
		</g>
		<g transform="matrix(0.753485,0,0,0.753485,210.173,95.1527)">
			<circle class="st34" cx="1149.89" cy="540.33" r="6.59"/>
		</g>
		<g transform="matrix(0.753485,0,0,0.753485,127.812,95.1527)">
			<circle class="st34" cx="1131.74" cy="540.33" r="6.59"/>
		</g>
		<g transform="matrix(0.753485,0,0,0.753485,45.4504,95.1527)">
			<circle class="st34" cx="1113.6" cy="540.33" r="6.59"/>
		</g>
	</g>
	<g transform="matrix(0.611552,0,0,0.611552,510.792,147.136)">
		<g transform="matrix(0.753485,0,0,0.753485,292.534,95.1527)">
			<circle class="st34" cx="1168.04" cy="551.92" r="6.59"/>
		</g>
		<g transform="matrix(0.753485,0,0,0.753485,210.173,95.1527)">
			<circle class="st34" cx="1149.89" cy="551.92" r="6.59"/>
		</g>
		<g transform="matrix(0.753485,0,0,0.753485,127.812,95.1527)">
			<circle class="st34" cx="1131.74" cy="551.92" r="6.59"/>
		</g>
		<g transform="matrix(0.753485,0,0,0.753485,45.4504,95.1527)">
			<circle class="st34" cx="1113.6" cy="551.92" r="6.59"/>
		</g>
	</g>
	<g transform="matrix(0.611552,0,0,0.611552,510.792,179.311)">
		<g transform="matrix(0.753485,0,0,0.753485,292.534,95.1527)">
			<circle class="st34" cx="1168.04" cy="563.51" r="6.59"/>
		</g>
		<g transform="matrix(0.753485,0,0,0.753485,210.173,95.1527)">
			<circle class="st34" cx="1149.89" cy="563.51" r="6.59"/>
		</g>
		<g transform="matrix(0.753485,0,0,0.753485,127.812,95.1527)">
			<circle class="st34" cx="1131.74" cy="563.51" r="6.59"/>
		</g>
		<g transform="matrix(0.753485,0,0,0.753485,45.4504,95.1527)">
			<circle class="st34" cx="1113.6" cy="563.51" r="6.59"/>
		</g>
	</g>
</g>
<g transform="matrix(0.606905,0,0,0.606905,-360.762,-20.9194)">
	<g transform="matrix(0.611552,0,0,0.611552,510.792,114.961)">
		<g transform="matrix(0.753485,0,0,0.753485,292.534,95.1527)">
			<circle class="st35" cx="834.01" cy="250.88" r="6.59"/>
		</g>
		<g transform="matrix(0.753485,0,0,0.753485,210.173,95.1527)">
			<circle class="st35" cx="815.87" cy="250.88" r="6.59"/>
		</g>
		<g transform="matrix(0.753485,0,0,0.753485,127.812,95.1527)">
			<circle class="st35" cx="797.72" cy="250.88" r="6.59"/>
		</g>
	</g>
	<g transform="matrix(0.611552,0,0,0.611552,510.792,147.136)">
		<g transform="matrix(0.753485,0,0,0.753485,292.534,95.1527)">
			<circle class="st35" cx="834.01" cy="262.47" r="6.59"/>
		</g>
		<g transform="matrix(0.753485,0,0,0.753485,210.173,95.1527)">
			<circle class="st35" cx="815.87" cy="262.47" r="6.59"/>
		</g>
		<g transform="matrix(0.753485,0,0,0.753485,127.812,95.1527)">
			<circle class="st35" cx="797.72" cy="262.47" r="6.59"/>
		</g>
	</g>
	<g transform="matrix(0.611552,0,0,0.611552,510.792,179.311)">
		<g transform="matrix(0.753485,0,0,0.753485,292.534,95.1527)">
			<circle class="st35" cx="834.01" cy="274.06" r="6.59"/>
		</g>
		<g transform="matrix(0.753485,0,0,0.753485,210.173,95.1527)">
			<circle class="st35" cx="815.87" cy="274.06" r="6.59"/>
		</g>
		<g transform="matrix(0.753485,0,0,0.753485,127.812,95.1527)">
			<circle class="st35" cx="797.72" cy="274.06" r="6.59"/>
		</g>
	</g>
</g>
<g transform="matrix(0.606905,0,0,0.606905,-31.3814,39.9854)">
	<circle class="st36" cx="656.26" cy="182.77" r="5.23"/>
	<g transform="matrix(1,0,0,1,18.2713,0)">
		<circle class="st37" cx="659.29" cy="182.77" r="5.23"/>
	</g>
	<g transform="matrix(1,0,0,1,36.5426,0)">
		<circle class="st38" cx="662.33" cy="182.77" r="5.23"/>
	</g>
</g>
</svg>
